<svg xmlns="http://www.w3.org/2000/svg" viewBox="0 0 768 203"><defs><style>.cls-1{fill:#fdfdfd;}.cls-2{fill:#04bfae;}.cls-3{fill:#302d2e;}.cls-4{fill:#272325;}.cls-5{fill:#13beab;}.cls-6{fill:#68b4ad;}.cls-7{fill:#fcfcfc;}</style></defs><title>Element 2</title><g id="Ebene_2" data-name="Ebene 2"><g id="Ebene_1-2" data-name="Ebene 1"><path class="cls-1" d="M1,204V1H769V204ZM453.12,60.85l0,0c-4.85-2-9.36-1.75-13.34,2-2.57,3-5.35,5.81-7.64,9-1.83,2.54-3.07,5.5-4.57,8.28l-1.42.43c-4.37-12.07-8.9-23.92-25.16-19.68a51.14,51.14,0,0,0-5.29,2.34c-7.26,4.21-8.5,19.25-4.8,27.14.9,2.27,1.41,4.83,2.79,6.77,7.1,10,14.45,19.83,21.68,29.74,3.78,5.17,7.5,10.38,11.65,16.14l3-4.2,2.68-3.89Q443.82,120,455,105l1.54-2.07.46-1,2.49-3.48.2-.25c3.56-5.22,5.86-10.82,5.26-17.3.84-6-.43-11.49-4.53-16.15ZM58.68,165.16a14.77,14.77,0,0,0,3.25.78q21.34.09,42.69.05a32,32,0,0,0,4.5-.87L106,159.07H56.4ZM41.52,79c-.09-9.31-.58-18.64-.05-27.92.18-3.08,2.6-6.32,4.69-8.94,3.25-4.06,8.29-3.74,12.9-3.81,9.47-.13,19,0,28.37,0,1.54-4.24.64-6.12-3.71-6.06-9.16.13-18.32-.11-27.48,0-12.05.18-20.89,9.19-21,21.29-.07,8.49,0,17,0,25.47v6.53H87.67v-6c-6.87,0-13.35.07-19.83,0C59.06,79.42,50.29,79.18,41.52,79ZM716.2,70.41l1,.12v70.54h6V57.33c-7.8-1.13-7.81-1.13-10.42,5.34q-13.41,33.24-26.84,66.48a10.53,10.53,0,0,1-1.44,1.94c-9.26-22.86-18.38-45.31-27.44-67.78-2.88-7.15-2.8-7.18-10.83-5.91v83.79h6.13V71.59a75,75,0,0,1,6.44,13.11c7.18,17.68,14.27,35.41,21.61,53,.66,1.59,2.87,3.48,4.36,3.48s3.32-2.09,4.07-3.7c2.33-4.95,4.2-10.11,6.27-15.19Q705.65,96.37,716.2,70.41ZM116.51,141.22c0-16.28-.17-32.08.16-47.87a13,13,0,0,1,3.57-8.12,18,18,0,0,1,15.62-4.94c7.74,1,11.89,4.83,12.19,12.65.54,14.3.36,28.63.47,42.94,0,1.76,0,3.52,0,5.62l6.45-.31v-5.82c0-13.65,0-27.31,0-41,0-6.36,3.26-11,8.9-13.12,12-4.62,22.62,2.35,22.75,15.19.13,13.15,0,26.31,0,39.47v5.21H193c0-15.22,0-30.19,0-45.15,0-10.49-4.48-18.12-12.48-20.68-9.89-3.16-21.32-1.17-26.53,7.9-.28.47-.94.72-1.65,1.25-3.43-7.51-9.64-10-17.06-10.43s-13.53,3.12-18.9,8.41c-2-7.63-2-7.63-5.76-6.71v65.48ZM258,141.15c0-15.68,0-30.83,0-46,0-7.52,3.68-12.34,10.65-14.34,11.88-3.39,21.12,3.46,21.16,15.77,0,14.78,0,29.57,0,44.45h6.21c0-16.18.25-32-.08-47.8-.24-11.49-7.8-18.66-19.37-19.25-8.75-.45-15.81,2.72-20.69,10.93-3.79-7.64-9.81-10.53-17.26-10.89S225,77,219.53,82.73L217.75,75,214,75.2v66.3l5.8-.4c0-16.33,0-32.14.06-47.94a10.69,10.69,0,0,1,1.33-5.59c3.94-6,13.5-8.86,21-6.59,6.57,2,9.56,6.75,9.65,15.59.07,5.83,0,11.66,0,17.48v27.1ZM24.41,134.8c-.12-1.58-.26-2.55-.27-3.52,0-26.49-.05-53,.07-79.47A36.56,36.56,0,0,1,25.75,42C30,27.29,43.23,17.62,59,17.52c9.57-.05,19.15,0,29.06,0l-.33-5.68c-10,0-19.68,0-29.32,0a40,40,0,0,0-40,40.45q0,38.22,0,76.46V140H88.09l-.36-5.24ZM354.79,104c-7.55-.68-14.14-1.88-20.7-1.74-14.78.31-22,9.48-20.08,24.54,1.51,11.8,11.67,18.45,24.82,15.2,5.79-1.43,11.07-5,16.61-7.56.17,1.4.48,4,.81,6.79H361c0-7.9.11-15.53,0-23.16-.18-9.64-.15-19.32-1-28.91-.71-8.14-5.72-12.74-13.65-14.33-8.2-1.64-16.13-.69-24.09,1.7-3.86,1.16-5.28,2.9-4.21,5.8,7.78-.78,15.29-2,22.83-2.16,6.65-.18,11,2.95,12.31,8.73C354.33,93.92,354.33,99.23,354.79,104Zm131.57,27.81c-1.31,3.61-1.63,6.46,2.61,8.22,16.19,6.72,40.9,2.57,41-25Q530,88,530,61.07c0-1.28-.17-2.56-.27-4h-6.88c0,17.84,0,35.44,0,53a60.3,60.3,0,0,1-.86,10.91c-1.37,7.3-5.63,12.19-13,14.09A28.48,28.48,0,0,1,486.36,131.79Zm97.91-74.72V141.2h6.36V57.07ZM49.25,185.5a11.34,11.34,0,0,0,2,.47c20.26,0,40.53.1,60.8-.08a5,5,0,0,0,3.7-3c.63-2.84-1.74-2.87-3.87-2.87-19.61,0-39.21,0-58.81,0a31.4,31.4,0,0,0-3.8.44Zm-3.62-63.37c6.78-.08,11.43-4.31,11.41-10.47,0-8.89-4.71-12.44-12-13.07-6.12-.53-11.24,5.5-11.17,12.08A11.34,11.34,0,0,0,45.63,122.13ZM32.51,187.48l20.66-34.42-5.28-2.9L27.15,184.71Zm100.49.14,5.14-3.06-20.95-34.74c-1.84,2.1-6,2.22-3.15,6.72C120.34,166.61,126.42,176.81,133,187.62ZM561.89,138.8v-2.37c-1.88-1.24-3.63-3.14-5.68-3.55-3.31-.67-5.15,1.29-5.28,4.83-.13,3.79,2.43,5.37,5.28,5C558.23,142.51,560,140.19,561.89,138.8Zm183-.69a4.19,4.19,0,0,0,5.1,4.58c1.89-.3,4.26-2.9,4.84-4.92.84-2.91-1.1-5-4.46-5.06S745,133.92,744.92,138.11Zm-131-.49c-.08,3.57,2.2,5.64,5.18,5,1.91-.39,4.22-3,4.76-5,.79-3-1.32-4.92-4.59-5S613.89,134,613.94,137.62Z" transform="translate(-1 -1)"/><path class="cls-2" d="M430,138.85l-3,4.2c-4.15-5.76-7.87-11-11.65-16.14-7.23-9.91-14.58-19.74-21.68-29.74-1.38-1.94-1.89-4.5-2.79-6.77.49-4-2.69-9.1,3.51-11.41.44-.16.29-1.59.68-2.28,2.79-5,.47-11.83,5.9-15.79,16.26-4.24,20.79,7.61,25.16,19.68l1.42-.43c1.5-2.78,2.74-5.74,4.57-8.28,2.29-3.18,5.07-6,7.64-9l13.34-2,0,0,7.32,4C464.54,69.5,465.81,75,465,81c-1.48,3.82-3.1,7.6-4.4,11.48a32.8,32.8,0,0,0-.86,5.82l-.2.25L457,102c-.15.32-.3.63-.46,1L455,105Q443.83,120,432.63,135l-3.41-5.9-3.11.26Zm8.25-16.31c3.12-4.49,3.12-4.49-.59-6.93C436.48,118,433.47,120.61,438.2,122.54ZM399.52,76.33l.84,0V65.69l-.84,0Zm56.26-3.41,1.64-.3-.93-5.12-1.48.27C455.27,69.48,455.53,71.2,455.78,72.92Z" transform="translate(-1 -1)"/><path class="cls-3" d="M716.2,70.41q-10.55,26-21.1,51.91c-2.07,5.08-3.94,10.24-6.27,15.19-.75,1.61-2.68,3.69-4.07,3.7s-3.7-1.89-4.36-3.48c-7.34-17.62-14.43-35.35-21.61-53a75,75,0,0,0-6.44-13.11v69.6h-6.13V57.4c8-1.27,7.95-1.24,10.83,5.91,9.06,22.47,18.18,44.92,27.44,67.78a10.53,10.53,0,0,0,1.44-1.94q13.44-33.23,26.84-66.48c2.61-6.47,2.62-6.47,10.42-5.34v83.74h-6V70.53Z" transform="translate(-1 -1)"/><path class="cls-3" d="M116.51,141.22h-5.86V75.74c3.8-.92,3.8-.92,5.76,6.71,5.37-5.29,11.36-8.8,18.9-8.41S148.94,77,152.37,84.47c.71-.53,1.37-.78,1.65-1.25,5.21-9.07,16.64-11.06,26.53-7.9C188.55,77.88,193,85.51,193,96c0,15,0,29.93,0,45.15h-6.4v-5.21c0-13.16.14-26.32,0-39.47-.13-12.84-10.7-19.81-22.75-15.19C158.26,83.44,155,88,155,94.4c-.07,13.66,0,27.32,0,41v5.82l-6.45.31c0-2.1,0-3.86,0-5.62-.11-14.31.07-28.64-.47-42.94-.3-7.82-4.45-11.61-12.19-12.65a18,18,0,0,0-15.62,4.94,13,13,0,0,0-3.57,8.12C116.34,109.14,116.51,124.94,116.51,141.22Z" transform="translate(-1 -1)"/><path class="cls-3" d="M258,141.15h-6.22v-27.1c0-5.82.06-11.65,0-17.48-.09-8.84-3.08-13.61-9.65-15.59-7.51-2.27-17.07.58-21,6.59a10.69,10.69,0,0,0-1.33,5.59c-.1,15.8-.06,31.61-.06,47.94l-5.8.4V75.2l3.79-.23,1.78,7.76c5.46-5.77,11.58-9,19.15-8.69s13.47,3.25,17.26,10.89c4.88-8.21,11.94-11.38,20.69-10.93,11.57.59,19.13,7.76,19.37,19.25.33,15.8.08,31.62.08,47.8h-6.21c0-14.88,0-29.67,0-44.45,0-12.31-9.28-19.16-21.16-15.77-7,2-10.63,6.82-10.65,14.34C258,110.32,258,125.47,258,141.15Z" transform="translate(-1 -1)"/><path class="cls-3" d="M24.41,134.8H87.73l.36,5.24H18.36V128.75q0-38.23,0-76.46a40,40,0,0,1,40-40.45c9.64-.05,19.28,0,29.32,0l.33,5.68c-9.91,0-19.49,0-29.06,0-15.78.1-29,9.77-33.26,24.51a36.56,36.56,0,0,0-1.54,9.78c-.12,26.49-.07,53-.07,79.47C24.15,132.25,24.29,133.22,24.41,134.8Z" transform="translate(-1 -1)"/><path class="cls-3" d="M354.79,104c-.46-4.75-.46-10.06-1.6-15.1-1.31-5.78-5.66-8.91-12.31-8.73-7.54.21-15.05,1.38-22.83,2.16-1.07-2.9.35-4.64,4.21-5.8,8-2.39,15.89-3.34,24.09-1.7C354.28,76.4,359.29,81,360,89.14c.85,9.59.82,19.27,1,28.91.14,7.63,0,15.26,0,23.16h-4.78c-.33-2.82-.64-5.39-.81-6.79-5.54,2.6-10.82,6.13-16.61,7.56-13.15,3.25-23.31-3.4-24.82-15.2-1.94-15.06,5.3-24.23,20.08-24.54C340.65,102.1,347.24,103.3,354.79,104Zm-.34,14.43a17.54,17.54,0,0,1,0-3c.81-4.53-1.16-7-5.61-7.33-5.28-.41-10.61-1.19-15.84-.76-7.91.66-12.58,5.6-13.06,12.54-.61,9,2.4,14.48,9.44,16.51C339.67,139.34,356.77,134.13,354.45,118.41Z" transform="translate(-1 -1)"/><path class="cls-3" d="M486.36,131.79a28.48,28.48,0,0,0,22.55,3.35c7.38-1.9,11.64-6.79,13-14.09a60.3,60.3,0,0,0,.86-10.91c.09-17.59,0-35.19,0-53h6.88c.1,1.4.27,2.68.27,4q0,27,0,53.89c-.07,27.62-24.78,31.77-41,25C484.73,138.25,485.05,135.4,486.36,131.79Z" transform="translate(-1 -1)"/><path class="cls-4" d="M584.27,57.07h6.36V141.2h-6.36Z" transform="translate(-1 -1)"/><path class="cls-5" d="M35.29,79c0-8.49-.12-17,0-25.47.11-12.1,8.95-21.11,21-21.29,9.16-.14,18.32.1,27.48,0,4.35-.06,5.25,1.82,3.71,6.06-9.41,0-18.9-.1-28.37,0-4.61.07-9.65-.25-12.9,3.81-2.09,2.62-4.51,5.86-4.69,8.94-.53,9.28,0,18.61.05,27.92Z" transform="translate(-1 -1)"/><path class="cls-5" d="M49.25,185.5v-5a31.4,31.4,0,0,1,3.8-.44c19.6,0,39.2,0,58.81,0,2.13,0,4.5,0,3.87,2.87a5,5,0,0,1-3.7,3c-20.27.18-40.54.11-60.8.08A11.34,11.34,0,0,1,49.25,185.5Z" transform="translate(-1 -1)"/><path class="cls-5" d="M45.63,122.13a11.34,11.34,0,0,1-11.78-11.46c-.07-6.58,5-12.61,11.17-12.08,7.31.63,12,4.18,12,13.07C57.06,117.82,52.41,122.05,45.63,122.13Zm0-5.93c3.9,0,6-2.49,5.94-5.91s-2.36-5.48-6.21-5.49-5.47,1.88-5.5,5.43C39.84,114.05,41.91,116,45.66,116.2Z" transform="translate(-1 -1)"/><path class="cls-3" d="M35.29,79l6.23,0c8.77.18,17.54.42,26.32.53,6.48.09,13,0,19.83,0v6H35.29Z" transform="translate(-1 -1)"/><path class="cls-5" d="M32.51,187.48l-5.36-2.77,20.74-34.55,5.28,2.9Z" transform="translate(-1 -1)"/><path class="cls-5" d="M133,187.62c-6.58-10.81-12.66-21-19-31.08-2.82-4.5,1.31-4.62,3.15-6.72l20.95,34.74Z" transform="translate(-1 -1)"/><path class="cls-5" d="M58.68,165.16l-2.28-6.09H106c0,.64.05,1.28.08,1.92H60.69v2h45.37c-1.59.67-3.16,1.9-4.75,1.92C87.1,165.13,72.89,165.12,58.68,165.16Z" transform="translate(-1 -1)"/><path class="cls-5" d="M401,60.92c-5.43,4-3.11,10.83-5.9,15.79-.39.69-.24,2.12-.68,2.28-6.2,2.31-3,7.42-3.51,11.41-3.7-7.89-2.46-22.93,4.8-27.14A51.14,51.14,0,0,1,401,60.92Z" transform="translate(-1 -1)"/><path class="cls-3" d="M561.89,138.8c-1.88,1.39-3.66,3.71-5.68,3.95-2.85.33-5.41-1.25-5.28-5,.13-3.54,2-5.5,5.28-4.83,2,.41,3.8,2.31,5.68,3.55Z" transform="translate(-1 -1)"/><path class="cls-3" d="M744.92,138.11c.06-4.19,2.15-5.48,5.48-5.4s5.3,2.15,4.46,5.06c-.58,2-3,4.62-4.84,4.92A4.19,4.19,0,0,1,744.92,138.11Z" transform="translate(-1 -1)"/><path class="cls-3" d="M613.94,137.61c-.05-3.62,2-5,5.35-4.91s5.38,2,4.59,5c-.54,2-2.85,4.6-4.76,5C616.14,143.26,613.86,141.19,613.94,137.61Z" transform="translate(-1 -1)"/><path class="cls-6" d="M58.68,165.16c14.21,0,28.42,0,42.63-.22,1.59,0,3.16-1.25,4.75-1.92,0-.68,0-1.36,0-2s-.05-1.28-.08-1.92l3.16,6.05a32,32,0,0,1-4.5.87q-21.34,0-42.69-.05A14.77,14.77,0,0,1,58.68,165.16Z" transform="translate(-1 -1)"/><path class="cls-5" d="M459.71,98.29a32.8,32.8,0,0,1,.86-5.82c1.3-3.88,2.92-7.66,4.4-11.48C465.57,87.47,463.27,93.07,459.71,98.29Z" transform="translate(-1 -1)"/><path class="cls-5" d="M430,138.85l-3.84-9.53,3.11-.26,3.41,5.9Z" transform="translate(-1 -1)"/><path class="cls-5" d="M453.09,60.89l-13.34,2C443.73,59.14,448.24,58.9,453.09,60.89Z" transform="translate(-1 -1)"/><path class="cls-5" d="M460.44,64.84l-7.32-4Z" transform="translate(-1 -1)"/><path class="cls-5" d="M457,102l2.49-3.48Z" transform="translate(-1 -1)"/><path class="cls-5" d="M455,105l1.54-2.07Z" transform="translate(-1 -1)"/><path class="cls-5" d="M438.2,122.54c-4.73-1.93-1.72-4.51-.59-6.93C441.32,118.05,441.32,118.05,438.2,122.54Z" transform="translate(-1 -1)"/><path class="cls-5" d="M399.52,76.33V65.72l.84,0V76.3Z" transform="translate(-1 -1)"/><path class="cls-5" d="M455.78,72.92c-.25-1.72-.51-3.44-.77-5.15l1.48-.27.93,5.12Z" transform="translate(-1 -1)"/><path class="cls-7" d="M354.45,118.41c2.32,15.72-14.78,20.93-25.05,18-7-2-10-7.48-9.44-16.51.48-6.94,5.15-11.88,13.06-12.54,5.23-.43,10.56.35,15.84.76,4.45.35,6.42,2.8,5.61,7.33A17.54,17.54,0,0,0,354.45,118.41Z" transform="translate(-1 -1)"/><path class="cls-7" d="M45.66,116.2c-3.75-.24-5.82-2.15-5.77-6,0-3.55,1.7-5.43,5.5-5.43s6.18,2,6.21,5.49S49.56,116.16,45.66,116.2Z" transform="translate(-1 -1)"/><path class="cls-2" d="M106,161c0,.67,0,1.35,0,2H60.69v-2Z" transform="translate(-1 -1)"/></g></g></svg>