<svg xmlns="http://www.w3.org/2000/svg" viewBox="0 0 768 203"><defs><style>.cls-1{fill:#fdfdfd;}.cls-2{fill:#05beae;}.cls-3{fill:#2c292a;}.cls-4{fill:#2f2c2d;}.cls-5{fill:#2c2a2b;}.cls-6{fill:#302d2e;}.cls-7{fill:#2c2a2a;}.cls-8{fill:#272325;}.cls-9{fill:#15b8a9;}.cls-10{fill:#16bdab;}.cls-11{fill:#303031;}.cls-12{fill:#05beac;}.cls-13{fill:#1ebcaa;}.cls-14{fill:#18bfaf;}.cls-15{fill:#15beab;}.cls-16{fill:#17beac;}.cls-17{fill:#18bbae;}.cls-18{fill:#2e2e2e;}.cls-19{fill:#2c2c2c;}.cls-20{fill:#2e2c2d;}.cls-21{fill:#66b4ad;}.cls-22{fill:#fcfcfc;}.cls-23{fill:#f4fcfc;}</style></defs><title>Element 1</title><g id="Ebene_2" data-name="Ebene 2"><g id="Ebene_1-2" data-name="Ebene 1"><path class="cls-1" d="M1,204V1H769V204Zm57.84-38.81,0,0a10.3,10.3,0,0,0,2.74.76q21.48.09,42.95,0a32,32,0,0,0,4.57-.84l-3.21-6.06L58,159.17l-.8.9v2.83ZM390.76,90.13c.7,1.73,1.41,3.45,2.11,5.18a7.37,7.37,0,0,0,.68,1.79q13.45,18.48,27,36.93c2.08,2.85,4.15,5.71,6.49,8.93,10.8-14.61,21-28.47,31.27-42.27a35,35,0,0,0,6.87-24.33c-.65-8.92-6.29-15.43-14.48-16.46A18.16,18.16,0,0,0,431.1,72.72a14.7,14.7,0,0,1-1.26,3.72c-.64,1-2,2.54-2.68,2.36a6.11,6.11,0,0,1-3-2.75c-.67-1.08-.71-2.53-1.15-3.78C419.52,62.55,408.69,57.39,401,60.9c-1.78.78-3.8,1.25-5.3,2.4-6.89,5.28-8.79,16.3-4.84,26.86ZM43.91,36.82,42.79,37.9C37.1,41.42,35.36,47,35.25,53.16c-.15,8.62,0,17.24,0,25.86v6.54H87.69v-6c-6.53,0-12.68.07-18.83,0-9.11-.12-18.22-.34-27.32-.52-.14-7.48-.73-15-.25-22.42.3-4.62,2.23-9.13,3.42-13.69L47,41h0c5.79-.93,11.55-2.32,17.38-2.67,7.74-.46,15.53-.11,23.22-.11,1.16-4.06.56-6.07-3.62-6-9.65.12-19.33-.4-28.94.22-3.81.25-7.48,2.85-11.21,4.38ZM646.32,57.2v84.31l6-.29V71.63a7.77,7.77,0,0,1,2.64,3.6c8.43,20.75,16.78,41.55,25.38,62.23A7.05,7.05,0,0,0,685,141.2c1.14.15,3.18-2.25,3.89-3.91,4.79-11.3,9.35-22.72,14-34.1q6.68-16.44,13.34-32.88l.94.18v71l5.93-.31V57.26c-5.39-1.24-8.48-.33-10.59,5.57-5.32,14.83-11.69,29.28-17.63,43.88-3.28,8.08-6.55,16.17-10,24.68a18.4,18.4,0,0,1-1.08-1.78q-13.35-33-26.68-66C654.26,56.47,654.33,56.44,646.32,57.2ZM193,141.28c0-15.49.05-30.61,0-45.74s-10.73-23.91-25.74-21.22c-6.45,1.16-10.88,5-14.74,10.77-3.49-8.21-9.8-10.61-17.19-11-7.55-.44-13.6,3-18.93,8.45-2-7.65-2-7.65-5.78-6.81v65.41h5.85v-5.75c0-14,.14-28-.06-42a9.82,9.82,0,0,1,4-8.57c4.67-3.63,9.92-5.41,15.84-4.46,7.49,1.2,11.44,4.88,11.73,12.53.54,14.3.37,28.63.48,42.94,0,1.77,0,3.53,0,5.3H155v-5.21c0-13.83,0-27.65,0-41.48,0-7,3.6-11.54,10.31-13.52,11.91-3.53,21.22,3.13,21.34,15.49.14,13,0,26,0,39v5.89Zm65-.06c0-15.25,0-30.06,0-44.88,0-10.12,5.75-16.18,15.39-16.27,10.44-.11,16.4,5.76,16.44,16.33.05,13.65,0,27.31,0,41,0,1.26.17,2.52.25,3.76H296c0-16.41.35-32.56-.12-48.68-.3-10.24-6.53-16.55-16.63-18.09-9.65-1.47-17.73,1.23-23.39,10.78-3.63-8.08-10-10.75-17.51-11.09s-13.57,3.09-18.89,8.72l-1.8-7.92-3.79.53v66.07l5.85-.29c0-16.25-.05-32,.07-47.83a11.17,11.17,0,0,1,1.5-6c4.14-6,13.77-8.64,21.15-6.26,6.41,2.07,9.32,6.89,9.35,15.83.05,13,0,26,0,39,0,1.76.15,3.51.23,5.38ZM87.84,11.83c-10,0-19.65,0-29.28,0a40,40,0,0,0-40.17,40.3q0,38.49,0,77v11H88c-.09-1.83-.16-3.4-.26-5.4H24.14v-5.29q0-37.48,0-75c0-22.69,14.46-37,37.22-36.94,8.77,0,17.55,0,26.48,0ZM361,141.52c0-11.24.12-21.88,0-32.51a198.4,198.4,0,0,0-1-20.41c-.9-7.52-5.83-12.2-13.15-13.72-8.36-1.73-16.45-.82-24.58,1.65-3.89,1.18-5.23,3-4.17,5.77,7.81-.78,15.33-1.94,22.88-2.15,6.64-.17,11,3,12.28,8.77,1.14,5,1.11,10.33,1.48,14.32-9.15-.12-17.48-1.18-25.52-.1-12.31,1.65-17.64,11.58-14.93,25.17,2,10.23,10.8,15.68,23.23,14.19,7-.85,12.69-4.13,17.71-10.2.43,3.55.75,6.12,1.08,8.84Zm125.42-9.64c-2.31,4.84-.32,7.21,4.07,8.74,17.05,5.95,39.65.59,39.47-26.44-.07-12,0-24,0-36V57.1h-7.15c0,1.82,0,3.45,0,5.07,0,16.5,0,33,0,49.5a50.41,50.41,0,0,1-.86,9.42c-1.45,7.31-5.7,12.19-13.09,14.08A28.62,28.62,0,0,1,486.44,131.88Zm104.31,9.31V57.13h-6.59v84.06ZM49.31,185.7c1.31.13,2.28.31,3.24.31q29.4,0,58.81,0c2.11,0,4.54.48,4.57-3,0-3.8-2.68-3-4.9-3q-28.41,0-56.82,0c-1.6,0-3.21.14-5.18.23ZM33.85,110.27c-.05,6.72,4.83,11.81,11.36,11.87,7,.07,12.78-5.31,12.69-11.87-.09-6.22-5.81-11.64-12.44-11.82C39.3,98.28,33.89,103.79,33.85,110.27ZM48,150c-7.08,11.8-13.85,23.07-20.88,34.77l5.43,2.7,20.61-34.34Zm84.87,37.51,5.34-2.94c-7-11.68-13.84-23-20.7-34.35-4,1.54-5.56,3.13-2.63,7.57C121,167.17,126.51,177,132.83,187.53Zm417.34-48.29c2,1.24,3.86,3.36,5.9,3.52,3.08.23,5.15-1.9,5-5.4-.14-3.28-1.94-4.68-5.14-4.65C552.35,132.75,550.88,134.64,550.17,139.24Zm205.77-.57c-1-4.47-2.68-6-5.92-6-3.45,0-5.1,1.68-5.09,5.2s2.37,5.18,5,4.81C752.06,142.42,753.94,140.1,755.94,138.67Zm-131,0-.09-2.49c-1.94-1.16-3.78-3-5.86-3.31-3.37-.57-5.12,1.49-5.06,5s2.23,5.25,5,4.81C621.08,142.35,623,140.08,625,138.67Z" transform="translate(-1 -1)"/><path class="cls-2" d="M401,60.9c7.73-3.51,18.56,1.65,22.05,11.37.44,1.25.48,2.7,1.15,3.78a6.11,6.11,0,0,0,3,2.75c.66.18,2-1.34,2.68-2.36a14.7,14.7,0,0,0,1.26-3.72A18.16,18.16,0,0,1,450.67,59.9c8.19,1,13.83,7.54,14.48,16.46a35,35,0,0,1-6.87,24.33C448,114.49,437.81,128.35,427,143c-2.34-3.22-4.41-6.08-6.49-8.93q-13.5-18.47-27-36.93a7.37,7.37,0,0,1-.68-1.79c-.7-1.73-1.41-3.45-2.11-5.18l.06,0c.2-2.85-.18-5.91.74-8.51,1.25-3.52,4.61-6.54,5.05-10C397.13,67.42,397.8,63.81,401,60.9Z" transform="translate(-1 -1)"/><path class="cls-3" d="M646.32,57.2c8-.76,7.94-.73,10.8,6.39q13.29,33,26.68,66a18.4,18.4,0,0,0,1.08,1.78c3.44-8.51,6.71-16.6,10-24.68,5.94-14.6,12.31-29,17.63-43.88,2.11-5.9,5.2-6.81,10.59-5.57v83.88l-5.93.31v-71l-.94-.18q-6.66,16.44-13.34,32.88c-4.62,11.38-9.18,22.8-14,34.1-.71,1.66-2.75,4.06-3.89,3.91a7.05,7.05,0,0,1-4.72-3.74c-8.6-20.68-16.95-41.48-25.38-62.23a7.77,7.77,0,0,0-2.64-3.6v69.59l-6,.29Z" transform="translate(-1 -1)"/><path class="cls-4" d="M193,141.28h-6.39v-5.89c0-13,.14-26,0-39-.12-12.36-9.43-19-21.34-15.49-6.71,2-10.27,6.51-10.31,13.52-.08,13.83,0,27.65,0,41.48v5.21h-6.43c0-1.77,0-3.53,0-5.3-.11-14.31.06-28.64-.48-42.94-.29-7.65-4.24-11.33-11.73-12.53-5.92-1-11.17.83-15.84,4.46a9.82,9.82,0,0,0-4,8.57c.2,14,.07,28,.06,42v5.75h-5.85V75.7c3.82-.84,3.82-.84,5.78,6.81,5.33-5.41,11.38-8.89,18.93-8.45,7.39.42,13.7,2.82,17.19,11,3.86-5.77,8.29-9.61,14.74-10.77,15-2.69,25.68,6,25.74,21.22S193,125.79,193,141.28Z" transform="translate(-1 -1)"/><path class="cls-5" d="M258,141.22h-6c-.08-1.87-.23-3.62-.23-5.38,0-13,0-26,0-39,0-8.94-2.94-13.76-9.35-15.83-7.38-2.38-17,.29-21.15,6.26a11.17,11.17,0,0,0-1.5,6c-.12,15.79-.07,31.58-.07,47.83l-5.85.29V75.37l3.79-.53,1.8,7.92c5.32-5.63,11.39-9.07,18.89-8.72s13.88,3,17.51,11.09c5.66-9.55,13.74-12.25,23.39-10.78,10.1,1.54,16.33,7.85,16.63,18.09.47,16.12.12,32.27.12,48.68h-5.89c-.08-1.24-.25-2.5-.25-3.76,0-13.65,0-27.31,0-41,0-10.57-6-16.44-16.44-16.33-9.64.09-15.38,6.15-15.39,16.27C258,111.16,258,126,258,141.22Z" transform="translate(-1 -1)"/><path class="cls-6" d="M87.84,11.83v5.69c-8.93,0-17.71,0-26.48,0-22.76,0-37.2,14.25-37.22,36.94q0,37.47,0,75v5.29H87.78c.1,2,.17,3.57.26,5.4H18.35v-11q0-38.49,0-77a40,40,0,0,1,40.17-40.3C68.19,11.79,77.82,11.83,87.84,11.83Z" transform="translate(-1 -1)"/><path class="cls-4" d="M361,141.52l-4.76-.38c-.33-2.72-.65-5.29-1.08-8.84-5,6.07-10.69,9.35-17.71,10.2-12.43,1.49-21.19-4-23.23-14.19-2.71-13.59,2.62-23.52,14.93-25.17,8-1.08,16.37,0,25.52.1-.37-4-.34-9.29-1.48-14.32-1.3-5.8-5.64-8.94-12.28-8.77-7.55.21-15.07,1.37-22.88,2.15-1.06-2.82.28-4.59,4.17-5.77,8.13-2.47,16.22-3.38,24.58-1.65,7.32,1.52,12.25,6.2,13.15,13.72A198.4,198.4,0,0,1,361,109C361.14,119.64,361,130.28,361,141.52Zm-6.57-23.36c0-9.44,0-9.62-9.25-10.81a50.6,50.6,0,0,0-12.42,0c-7.94,1-12.44,5.76-12.83,12.8-.5,9,2.61,14.31,9.68,16.38C343.1,140.44,354.44,132.06,354.45,118.16Z" transform="translate(-1 -1)"/><path class="cls-7" d="M486.44,131.88a28.62,28.62,0,0,0,22.41,3.29c7.39-1.89,11.64-6.77,13.09-14.08a50.41,50.41,0,0,0,.86-9.42c.08-16.5,0-33,0-49.5,0-1.62,0-3.25,0-5.07H530V78.19c0,12-.07,24,0,36,.18,27-22.42,32.39-39.47,26.44C486.12,139.09,484.13,136.72,486.44,131.88Z" transform="translate(-1 -1)"/><path class="cls-8" d="M590.75,141.19h-6.59V57.13h6.59Z" transform="translate(-1 -1)"/><path class="cls-9" d="M49.31,185.7,49,180.24c2-.09,3.58-.23,5.18-.23q28.41,0,56.82,0c2.22,0,4.93-.75,4.9,3,0,3.43-2.46,3-4.57,3q-29.4,0-58.81,0C51.59,186,50.62,185.83,49.31,185.7Z" transform="translate(-1 -1)"/><path class="cls-10" d="M33.85,110.27c0-6.48,5.45-12,11.61-11.82,6.63.18,12.35,5.6,12.44,11.82.09,6.56-5.66,11.94-12.69,11.87C38.68,122.08,33.8,117,33.85,110.27Zm11.84-5.39c-3.8-.43-5.78,1.48-5.81,5.39s2,5.81,5.82,5.89c4,.08,5.88-2.54,5.9-6S49.66,104.64,45.69,104.88Z" transform="translate(-1 -1)"/><path class="cls-11" d="M41.53,79c9.11.19,18.22.41,27.33.53,6.15.09,12.3,0,18.83,0v6H35.28V79Z" transform="translate(-1 -1)"/><path class="cls-12" d="M58,159.17l47.89-.09v6.09H58.84l-1.59-2.28c0-1,0-1.89,0-2.83Z" transform="translate(-1 -1)"/><path class="cls-13" d="M43.84,36.81c3.73-1.53,7.4-4.13,11.21-4.38,9.61-.62,19.29-.1,28.94-.22,4.18-.05,4.78,2,3.62,6-7.69,0-15.48-.35-23.22.11C58.56,38.69,52.8,40.08,47,41,47.23,38.65,46.84,36.75,43.84,36.81Z" transform="translate(-1 -1)"/><path class="cls-14" d="M43.84,36.81c3-.06,3.39,1.84,3.17,4.2h0l-2.3,1.88c-1.19,4.56-3.12,9.07-3.42,13.69-.48,7.44.11,14.94.24,22.42l-6.25,0c0-8.62-.18-17.24,0-25.86.11-6.18,1.85-11.74,7.54-15.25l1.12-1.09Z" transform="translate(-1 -1)"/><path class="cls-15" d="M48,150l5.16,3.13L32.51,187.49l-5.43-2.7C34.11,173.09,40.88,161.82,48,150Z" transform="translate(-1 -1)"/><path class="cls-16" d="M132.83,187.53c-6.32-10.54-11.8-20.36-18-29.72-2.93-4.44-1.38-6,2.63-7.57,6.86,11.4,13.66,22.67,20.7,34.35Z" transform="translate(-1 -1)"/><path class="cls-17" d="M401,60.9c-3.16,2.91-3.83,6.52-4.35,10.72-.44,3.49-3.8,6.51-5.05,10-.92,2.6-.54,5.66-.74,8.51-3.95-10.56-2.05-21.58,4.84-26.86C397.16,62.15,399.18,61.68,401,60.9Z" transform="translate(-1 -1)"/><path class="cls-18" d="M550.17,139.24c.71-4.6,2.18-6.49,5.76-6.53,3.2,0,5,1.37,5.14,4.65.15,3.5-1.92,5.63-5,5.4C554,142.6,552.13,140.48,550.17,139.24Z" transform="translate(-1 -1)"/><path class="cls-19" d="M755.94,138.67c-2,1.43-3.88,3.75-6,4.05-2.6.37-5-1.35-5-4.81s1.64-5.15,5.09-5.2C753.26,132.67,755,134.2,755.94,138.67Z" transform="translate(-1 -1)"/><path class="cls-20" d="M625,138.67c-2,1.41-3.87,3.68-6,4-2.74.44-4.92-1.44-5-4.81s1.69-5.58,5.06-5c2.08.35,3.92,2.15,5.86,3.31Z" transform="translate(-1 -1)"/><path class="cls-21" d="M58.88,165.17h47.05v-6.09l3.21,6.06a32,32,0,0,1-4.57.84q-21.48,0-42.95,0A10.3,10.3,0,0,1,58.88,165.17Z" transform="translate(-1 -1)"/><path class="cls-17" d="M390.76,90.13c.7,1.73,1.41,3.45,2.11,5.18C392.17,93.58,391.46,91.86,390.76,90.13Z" transform="translate(-1 -1)"/><path class="cls-13" d="M44.71,42.89,47,41Z" transform="translate(-1 -1)"/><path class="cls-21" d="M57.25,162.9l1.59,2.28Z" transform="translate(-1 -1)"/><path class="cls-13" d="M43.91,36.82l-1.12,1.09Z" transform="translate(-1 -1)"/><path class="cls-21" d="M58,159.17l-.8.9Z" transform="translate(-1 -1)"/><path class="cls-22" d="M354.45,118.16c0,13.9-11.35,22.28-24.82,18.34-7.07-2.07-10.18-7.34-9.68-16.38.39-7,4.89-11.81,12.83-12.8a50.6,50.6,0,0,1,12.42,0C354.48,108.54,354.46,108.72,354.45,118.16Z" transform="translate(-1 -1)"/><path class="cls-23" d="M45.69,104.88c4-.24,5.93,2.06,5.91,5.33s-1.92,6-5.9,6c-3.77-.08-5.84-2.07-5.82-5.89S41.89,104.45,45.69,104.88Z" transform="translate(-1 -1)"/></g></g></svg>